<svg xmlns="http://www.w3.org/2000/svg" viewBox="0 0 512 512" preserveAspectRatio="xMidYMid meet">
<rect width="512" height="512" fill="#000"/>
<g transform="translate(0,512) scale(0.1,-0.1)" fill="#fff" stroke="none">
<path d="M2360 4599 c-931 -94 -1692 -819 -1824 -1739 -47 -331 -20 -641 84 -952 200 -598 679 -1083 1270 -1286 747 -256 1565 -68 2121 487 304 305 496 677 575 1116 21 119 30 412 15 544 -50 458 -243 876 -556 1200 -447 465 -1057 693 -1685 630z m508 -239 c468 -80 869 -326 1164 -715 364 -481 458 -1169 238 -1740 -93 -240 -215 -428 -399 -618 -280 -288 -603 -459 -1011 -534 -72 -13 -146 -17 -305 -17 -185 1 -225 4 -336 27 -319 65 -591 195 -836 400 -315 265 -531 632 -614 1043 -27 137 -37 437 -19 581 106 848 787 1506 1645 1593 122 12 336 3 473 -20z"/>
<path d="M3595 3822 c-24 -3 -126 -99 -533 -505 l-502 -502 -503 503 -502 502 -47 0 c-35 0 -54 -6 -75 -24 l-28 -24 -5 -1170 c-3 -643 -2 -1186 1 -1208 9 -52 47 -84 102 -84 24 0 53 7 66 16 52 37 51 5 51 1101 l0 1018 392 -392 393 -393 -167 -167 c-183 -186 -235 -257 -275 -377 -33 -103 -38 -267 -9 -360 64 -212 229 -379 435 -440 288 -85 609 58 737 329 46 97 64 174 64 275 0 107 -21 194 -68 290 -31 65 -60 99 -219 260 l-182 186 394 394 395 395 0 -1028 c0 -1117 -2 -1069 55 -1095 49 -23 94 -15 131 22 l34 34 0 1177 c0 1062 -2 1180 -16 1211 -9 19 -17 34 -19 34 -1 0 -18 6 -36 13 -19 7 -47 11 -64 9z m-663 -1728 c29 -63 32 -78 33 -169 0 -92 -3 -105 -32 -167 -124 -261 -450 -326 -652 -129 -93 90 -141 232 -121 354 18 116 47 157 233 345 l172 173 167 -169 c144 -145 173 -179 200 -238z"/>
</g>
</svg>
